<?xml version="1.0" standalone="no"?>
<!DOCTYPE svg PUBLIC "-//W3C//DTD SVG 20010904//EN"
 "http://www.w3.org/TR/2001/REC-SVG-20010904/DTD/svg10.dtd">
<svg version="1.0" xmlns="http://www.w3.org/2000/svg"
 width="225.000000pt" height="225.000000pt" viewBox="0 0 225.000000 225.000000"
 preserveAspectRatio="xMidYMid meet">
<metadata>
Created by potrace 1.16, written by Peter Selinger 2001-2019
</metadata>
<g transform="translate(0.000000,225.000000) scale(0.100000,-0.100000)"
fill="#000000" stroke="none">
<path d="M785 1526 c-118 -51 -126 -247 -13 -316 68 -41 68 -40 68 155 0 189
1 186 -55 161z"/>
<path d="M1160 1475 c-43 -43 -59 -65 -47 -65 15 0 17 -13 17 -110 l0 -110 50
0 50 0 0 110 c0 91 3 110 15 110 8 0 15 7 15 15 0 8 -7 15 -14 15 -11 0 -16
14 -18 50 l-3 51 -65 -66z"/>
<path d="M980 1315 l0 -125 50 0 50 0 0 125 0 125 -50 0 -50 0 0 -125z"/>
<path d="M1283 1428 c3 -7 24 -57 46 -110 34 -81 41 -109 41 -163 l0 -65 50 0
50 0 0 78 c0 68 -5 89 -41 175 l-41 97 -55 0 c-40 0 -54 -3 -50 -12z"/>
<path d="M417 1103 c-18 -30 -13 -81 17 -203 l34 -135 64 -3 64 -3 -44 176
-45 175 -43 0 c-23 0 -45 -3 -47 -7z"/>
<path d="M560 1076 c-10 -30 -6 -53 26 -175 l37 -141 61 0 62 0 -36 148 c-20
81 -40 159 -43 175 -7 24 -12 27 -51 27 -42 0 -45 -2 -56 -34z"/>
<path d="M1250 935 l0 -175 50 0 50 0 0 175 0 175 -50 0 -50 0 0 -175z"/>
<path d="M1825 1047 c-44 -43 -57 -60 -47 -66 10 -6 14 -36 13 -115 l0 -106
48 0 48 0 7 46 c3 26 6 75 6 110 0 50 3 64 15 64 8 0 15 7 15 15 0 8 -7 15
-15 15 -11 0 -15 11 -15 38 0 20 -4 42 -8 47 -4 6 -32 -14 -67 -48z"/>
<path d="M890 991 c5 -11 10 -67 10 -125 l0 -106 50 0 50 0 0 99 c0 84 -3 102
-21 125 -16 20 -29 26 -60 26 -36 0 -39 -2 -29 -19z"/>
<path d="M1030 885 l0 -125 50 0 50 0 0 125 0 125 -50 0 -50 0 0 -125z"/>
<path d="M1380 885 l0 -125 66 0 66 0 -58 65 c-64 74 -65 61 15 148 l35 37
-62 0 -62 0 0 -125z"/>
<path d="M1581 996 c-50 -28 -67 -115 -35 -182 18 -38 87 -71 127 -60 36 9 77
45 77 69 0 20 -1 20 -27 -5 -16 -15 -40 -30 -55 -33 l-28 -7 0 116 c0 127 -4
133 -59 102z"/>
</g>
</svg>
